<?xml version="1.0" encoding="UTF-8" standalone="no"?>
<!-- Generator: Adobe Illustrator 19.0.0, SVG Export Plug-In . SVG Version: 6.00 Build 0)  -->

<svg
   xmlns:dc="http://purl.org/dc/elements/1.1/"
   xmlns:cc="http://creativecommons.org/ns#"
   xmlns:rdf="http://www.w3.org/1999/02/22-rdf-syntax-ns#"
   xmlns:svg="http://www.w3.org/2000/svg"
   xmlns="http://www.w3.org/2000/svg"
   xmlns:sodipodi="http://sodipodi.sourceforge.net/DTD/sodipodi-0.dtd"
   xmlns:inkscape="http://www.inkscape.org/namespaces/inkscape"
   version="1.1"
   id="Layer_1"
   x="0px"
   y="0px"
   viewBox="0 0 512.002 512.002"
   style="enable-background:new 0 0 512.002 512.002;"
   xml:space="preserve"
   sodipodi:docname="medicines.svg"
   inkscape:version="0.92.3 (2405546, 2018-03-11)"><metadata
   id="metadata938"><rdf:RDF><cc:Work
       rdf:about=""><dc:format>image/svg+xml</dc:format><dc:type
         rdf:resource="http://purl.org/dc/dcmitype/StillImage" /></cc:Work></rdf:RDF></metadata><defs
   id="defs936" /><sodipodi:namedview
   pagecolor="#ffffff"
   bordercolor="#666666"
   borderopacity="1"
   objecttolerance="10"
   gridtolerance="10"
   guidetolerance="10"
   inkscape:pageopacity="0"
   inkscape:pageshadow="2"
   inkscape:window-width="1920"
   inkscape:window-height="1051"
   id="namedview934"
   showgrid="false"
   inkscape:zoom="0.46093569"
   inkscape:cx="-106.3055"
   inkscape:cy="256.00101"
   inkscape:window-x="-32000"
   inkscape:window-y="-32000"
   inkscape:window-maximized="0"
   inkscape:current-layer="Layer_1" />
<g
   id="g895"
   style="fill:#00c99b;fill-opacity:1"
   inkscape:export-xdpi="120"
   inkscape:export-ydpi="120">
	<g
   id="g893"
   style="fill:#00c99b;fill-opacity:1">
		<path
   d="m 477.954,173.469 c -45.371,-45.366 -119.2,-45.36 -164.58,0.017 -0.003,0.003 -0.005,0.005 -0.008,0.008 L 173.517,313.341 c -21.987,21.985 -34.096,51.211 -34.101,82.294 -0.005,31.086 12.1,60.31 34.079,82.281 21.976,21.982 51.191,34.087 82.272,34.085 0.005,0 0.012,0 0.017,0 31.083,-0.005 60.309,-12.116 82.294,-34.101 L 477.935,338.048 c 0.005,-0.005 0.009,-0.011 0.014,-0.016 45.359,-45.373 45.363,-119.191 0.005,-164.563 z M 305.168,444.987 c -13.197,13.196 -30.737,20.464 -49.388,20.468 -0.005,0 -0.008,0 -0.011,0 -18.646,0 -36.172,-7.263 -49.36,-20.454 -13.186,-13.183 -20.449,-30.714 -20.446,-49.361 0.003,-18.652 7.272,-36.192 20.466,-49.388 l 53.471,-53.471 98.74,98.735 z M 445.028,305.13 c -0.002,0.002 -0.003,0.003 -0.005,0.005 l -53.471,53.468 -98.738,-98.735 53.464,-53.462 c 0.002,-0.002 0.005,-0.005 0.008,-0.006 27.234,-27.232 71.534,-27.238 98.754,-0.022 27.214,27.226 27.209,71.525 -0.012,98.752 z"
   id="path891"
   inkscape:connector-curvature="0"
   style="fill:#00c99b;fill-opacity:1" />
	</g>
</g>
<g
   id="g901"
   style="fill:#00c99b;fill-opacity:1"
   inkscape:export-xdpi="120"
   inkscape:export-ydpi="120">
	<g
   id="g899"
   style="fill:#00c99b;fill-opacity:1">
		<path
   d="M 198.675,34.082 C 176.698,12.103 147.476,0 116.395,0 85.315,0 56.094,12.103 34.115,34.082 12.136,56.061 0.031,85.284 0.031,116.365 c 0,31.082 12.105,60.303 34.084,82.28 21.977,21.979 51.198,34.082 82.28,34.082 31.082,0 60.303,-12.103 82.28,-34.082 45.369,-45.369 45.369,-119.192 0,-164.563 z M 46.577,116.365 c 0,-18.649 7.264,-36.183 20.451,-49.371 13.188,-13.188 30.72,-20.449 49.368,-20.449 10.595,0 20.829,2.351 30.112,6.794 l -93.136,93.136 c -4.443,-9.281 -6.795,-19.515 -6.795,-30.11 z m 119.186,49.368 c -13.186,13.186 -30.718,20.449 -49.368,20.449 -10.595,0 -20.829,-2.351 -30.112,-6.794 l 93.106,-93.105 c 12.358,25.947 7.828,57.997 -13.626,79.45 z"
   id="path897"
   inkscape:connector-curvature="0"
   style="fill:#00c99b;fill-opacity:1" />
	</g>
</g>
<g
   id="g903">
</g>
<g
   id="g905">
</g>
<g
   id="g907">
</g>
<g
   id="g909">
</g>
<g
   id="g911">
</g>
<g
   id="g913">
</g>
<g
   id="g915">
</g>
<g
   id="g917">
</g>
<g
   id="g919">
</g>
<g
   id="g921">
</g>
<g
   id="g923">
</g>
<g
   id="g925">
</g>
<g
   id="g927">
</g>
<g
   id="g929">
</g>
<g
   id="g931">
</g>
</svg>